<svg width="56" height="58" viewBox="0 0 56 58" fill="none" xmlns="http://www.w3.org/2000/svg">
<circle cx="28" cy="30" r="28" fill="#F7A02C"/>
<path d="M21.92 43.28L24.8 42.56V21.44L21.92 20.72V20H28.16C31.04 20 32.48 21.44 32.48 24.32V42.56L35.36 43.28V44H21.92V43.28ZM28.16 17.12C27.2 17.12 26.4 16.8 25.76 16.16C25.12 15.52 24.8 14.72 24.8 13.76C24.8 12.8 25.12 12 25.76 11.36C26.4 10.72 27.2 10.4 28.16 10.4C29.12 10.4 29.92 10.72 30.56 11.36C31.2 12 31.52 12.8 31.52 13.76C31.52 14.72 31.2 15.52 30.56 16.16C29.92 16.8 29.12 17.12 28.16 17.12Z" fill="white"/>
</svg>
