<?xml version="1.0" encoding="utf-8"?>
<!-- Generator: Adobe Illustrator 21.0.0, SVG Export Plug-In . SVG Version: 6.00 Build 0)  -->
<svg version="1.1" id="Слой_1" xmlns="http://www.w3.org/2000/svg" xmlns:xlink="http://www.w3.org/1999/xlink" x="0px" y="0px"
	 viewBox="0 0 285 89" style="enable-background:new 0 0 285 89;" xml:space="preserve">
<style type="text/css">
	.st0{fill:#C79B65;}
	.st1{fill:#E84B37;}
	.st2{fill:#663A2A;}
</style>
<path class="st0" d="M20.4,56.4V33.3H2.2v23.1c0,8.1,4.3,15.7,11.4,19.7l20.5,11.8v-21l-11.4-6.6C21.3,59.5,20.4,58,20.4,56.4"/>
<path class="st1" d="M34.1,78.8L54.6,67c7-4.1,11.4-11.6,11.4-19.7V1.4H34.1v18.2h13.6v27.7c0,1.6-0.9,3.1-2.3,3.9l-11.4,6.6
	L34.1,78.8L34.1,78.8z"/>
<polygon class="st2" points="34.1,1.4 2.2,33.3 34.1,33.3 "/>
<g>
	<path class="st2" d="M131.4,22V1.4h6.9V11c0,0.7-0.1,1.5-0.1,1.5h0.3L146,1.4h5.8V22h-6.1v-9.6c0-0.7,0.1-1.4,0.1-1.4h-0.3L138,22
		L131.4,22L131.4,22z"/>
	<path class="st2" d="M117.1,16.2c2.5,0,4.2-2,4.2-4.4c0-2.5-1.7-4.4-4.2-4.4c-2.4,0-4.2,2-4.2,4.4
		C112.9,14.2,114.7,16.2,117.1,16.2 M117.1,0.9c6.6,0,11.5,4.6,11.5,10.9c0,6.2-4.9,10.8-11.5,10.8c-6.5,0-11.4-4.6-11.4-10.8
		C105.7,5.6,110.6,0.9,117.1,0.9"/>
	<path class="st2" d="M111.8,43.5c4.2,0,7-3,7-7c0-4-2.8-7.1-7-7.1c-4.1,0-6.9,3.1-6.9,7.1C104.9,40.4,107.8,43.5,111.8,43.5
		 M111.8,25.6c6.4,0,11,4.6,11,10.9c0,6.2-4.6,10.8-11,10.8c-6.4,0-11-4.6-11-10.8C100.9,30.2,105.5,25.6,111.8,25.6"/>
	<path class="st2" d="M204.6,29c3.7,0,5.6,2.4,6,5.5h-11.9C199.2,31.3,201.5,29,204.6,29 M214.3,37.8c0-0.4,0.1-0.9,0.1-1.3
		c0-6.3-3.2-10.9-10-10.9c-5.8,0-10,4.6-10,10.9c0,0.4,0,0.9,0.1,1.3l0,0c0.5,5.4,3.9,9.5,11.1,9.5c3.5,0,6.4-1.1,8.5-2.8l-1.6-2.9
		c-1.6,1.2-4,2.3-6.8,2.3c-4.5,0-6.6-2.4-7.1-6h0L214.3,37.8L214.3,37.8z"/>
	<polygon class="st2" points="232.3,26.1 232.3,34.6 221.3,34.6 221.3,26.1 217.2,26.1 217.2,46.7 221.3,46.7 221.3,37.7 
		232.3,37.7 232.3,46.7 236.4,46.7 236.4,26.1 	"/>
	<polygon class="st2" points="257.9,26.1 239.2,26.1 239.2,29.8 246.5,29.8 246.5,46.7 250.6,46.7 250.6,29.8 257.9,29.8 	"/>
	<rect x="279.9" y="26.1" class="st2" width="4.1" height="20.6"/>
	<path class="st2" d="M134.6,35.9v-0.2c0,0,0.4-0.1,0.7-0.5c0.4-0.4,7.8-9,7.8-9h-4.6l-7.2,8.4h-1.6v-8.5h-4.1v20.6h4.1v-9h1.9
		l7.8,9h5.1c0,0-8.8-9.8-9.1-10.3C135,36,134.6,35.9,134.6,35.9"/>
	<path class="st2" d="M267.3,43.6c-1.3,0-2.4-0.1-2.4-0.1v-7.4c0,0,0.9-0.2,2.5-0.2c3.4,0,4.9,1.3,4.9,3.8
		C272.3,42.1,270.9,43.6,267.3,43.6 M268,32.4c-1.9,0-3.2,0.2-3.2,0.2v-6.5h-4.1v20.6c0,0,3.4,0.3,6.9,0.3c6.4,0,8.5-3.9,8.5-7.5
		C276.1,35.8,274.2,32.4,268,32.4"/>
	<path class="st2" d="M88.3,43.5c-4.1,0-6.3-3-6.2-7c0.1-4,2.4-7.1,6.6-7.1c2.3,0,5.3,2.1,5.3,5.8v5.7
		C92.7,42.5,90.7,43.5,88.3,43.5 M94.1,26.1L94,28.7h-0.3c-1.3-1.9-3.9-3.1-6-3.1c-6,0-9.6,4.6-9.7,10.9c-0.1,6.2,3.5,10.8,9.5,10.8
		c2.8,0,4.4-0.8,6.1-2.8H94v1.8c0,4-2.8,5.5-5.9,5.5c-2.9,0-5.1-1.1-6.5-1.9l-1.3,3.4c1.3,0.7,3.7,2.1,7.8,2.1c5.8,0,10-3.4,10-10
		V26.1H94.1L94.1,26.1z"/>
	<path class="st2" d="M160.7,26.1V41c-1.2,1.5-3.1,2.4-5.4,2.4c-3.8,0-5.5-3-5.4-7V26.1h-4v10.3c-0.1,6.2,2.3,10.8,8.3,10.8
		c2.7,0,4.6-0.8,6.1-2.8h0.3v1.8c0,4-2.8,5.5-5.9,5.5c-2.9,0-5.1-1.1-6.5-1.9l-1.3,3.4c1.3,0.7,3.7,2.1,7.8,2.1c5.8,0,10-3.4,10-10
		V26.1H160.7L160.7,26.1z"/>
	<path class="st2" d="M187.7,26.1c0,0-6.8,9.5-7,9.8c-0.2,0.3-0.3,0.6-0.3,0.6h-0.1c0,0-0.1-0.3-0.3-0.6c-0.2-0.3-7.5-9.8-7.5-9.8
		h-3.9v20.6h4.1V33.6c0-0.9-0.2-1.4-0.2-1.4h0.2l7.5,10.1h0.2l7-10.1h0.2c0,0-0.2,0.5-0.2,1.4v13.1h4.1V26.1H187.7L187.7,26.1z"/>
	<path class="st2" d="M97.5,1.5c0,0-5.8,7.5-6,7.8c-0.3,0.4-0.3,0.5-0.3,0.5h-0.3c0,0-0.1-0.2-0.3-0.5c-0.4-0.5-6.4-7.8-6.4-7.8
		h-5.4V22h6.6v-8.7c0-0.9-0.1-1.5-0.1-1.5h0.3l5.3,6.1h0.3l5-6.1h0.3c0,0-0.1,0.6-0.1,1.5V22h6.6V1.4L97.5,1.5L97.5,1.5z"/>
</g>
<g>
	<polygon class="st1" points="83,80.9 83.1,79.7 83,79.7 82.5,81 79.7,85.5 79,85.5 79,77.5 80.2,77.5 80.2,82.3 80,83.4 80.1,83.4 
		80.6,82.1 83.4,77.5 84.2,77.5 84.2,85.5 83,85.5 	"/>
	<polygon class="st1" points="95.5,80.7 95.6,79.2 95.6,79.2 95.1,80.6 93.6,83.7 93.2,83.7 91.6,80.6 91.1,79.2 91.1,79.2 
		91.2,80.7 91.2,85.5 90.2,85.5 90.2,77.5 91.3,77.5 93.1,81 93.4,82 93.5,82 93.8,80.9 95.5,77.5 96.7,77.5 96.7,85.5 95.5,85.5 	
		"/>
	<path class="st1" d="M100.9,82.7l0.3,1.6h0.1l0.2-1.6l1.2-5.2h1.2l-1.9,7.2c-0.2,0.6-0.3,1.1-0.4,1.6c-0.2,0.5-0.3,0.9-0.5,1.3
		c-0.2,0.4-0.4,0.7-0.6,0.9c-0.2,0.2-0.5,0.3-0.8,0.3c-0.3,0-0.6-0.1-0.8-0.1l0.2-1.1c0.1,0.1,0.3,0.1,0.4,0c0.1,0,0.3-0.1,0.4-0.3
		c0.1-0.2,0.2-0.4,0.4-0.7c0.1-0.3,0.2-0.7,0.3-1.2l-2.6-8.1h1.3L100.9,82.7z"/>
	<polygon class="st1" points="109.3,81.9 106.5,81.9 106.5,85.5 105.3,85.5 105.3,77.5 106.5,77.5 106.5,80.9 109.3,80.9 
		109.3,77.5 110.4,77.5 110.4,85.5 109.3,85.5 	"/>
	<polygon class="st1" points="116.7,80.9 116.8,79.7 116.7,79.7 116.1,81 113.4,85.5 112.6,85.5 112.6,77.5 113.8,77.5 113.8,82.3 
		113.7,83.4 113.8,83.4 114.3,82.1 117.1,77.5 117.9,77.5 117.9,85.5 116.7,85.5 	"/>
	<polygon class="st1" points="126,87.6 125.2,87.6 125,85.5 120.1,85.5 120.1,77.5 121.2,77.5 121.2,84.5 123.9,84.5 123.9,77.5 
		125.1,77.5 125.1,84.5 126,84.5 	"/>
	<polygon class="st1" points="131.6,80.9 131.7,79.7 131.6,79.7 131,81 128.3,85.5 127.6,85.5 127.6,77.5 128.7,77.5 128.7,82.3 
		128.6,83.4 128.7,83.4 129.2,82.1 132,77.5 132.7,77.5 132.7,85.5 131.6,85.5 	"/>
	<polygon class="st1" points="138.8,78.5 136.1,78.5 136.1,85.5 135,85.5 135,77.5 140,77.5 140,85.5 138.8,85.5 	"/>
	<path class="st1" d="M145.6,81.8c-0.1,0-0.2,0-0.3,0c-0.1,0-0.2,0-0.3,0c-0.2,0-0.5,0-0.7,0.1c-0.2,0.1-0.5,0.1-0.7,0.2
		c-0.2,0.1-0.4,0.2-0.4,0.4c-0.1,0.2-0.2,0.4-0.2,0.7c0,0.4,0.1,0.8,0.3,1c0.2,0.2,0.5,0.4,0.8,0.4c0.4,0,0.8-0.1,1-0.3
		c0.2-0.2,0.4-0.4,0.5-0.7L145.6,81.8L145.6,81.8z M142.2,78c0.3-0.2,0.7-0.3,1.2-0.4c0.4-0.1,0.9-0.2,1.4-0.2
		c0.4,0,0.8,0.1,1.1,0.2c0.3,0.1,0.5,0.3,0.7,0.6c0.2,0.2,0.2,0.5,0.3,0.8c0.1,0.3,0.1,0.6,0.1,0.9c0,0.6,0,1.3,0,1.9
		c0,0.6-0.1,1.2-0.1,1.7c0,0.4,0,0.8,0.1,1.1c0,0.4,0.1,0.7,0.1,1h-0.9l-0.3-1h-0.1c-0.2,0.3-0.4,0.5-0.7,0.7
		c-0.3,0.2-0.7,0.3-1.2,0.3c-0.6,0-1-0.2-1.4-0.6c-0.4-0.4-0.6-1-0.6-1.7c0-0.5,0.1-0.9,0.2-1.2c0.2-0.3,0.4-0.6,0.7-0.8
		c0.3-0.2,0.6-0.3,1-0.4c0.4-0.1,0.8-0.1,1.3-0.1h0.3c0.1,0,0.2,0,0.3,0c0-0.3,0.1-0.6,0.1-0.9c0-0.6-0.1-1-0.3-1.3s-0.5-0.4-1-0.4
		c-0.3,0-0.6,0.1-1,0.1s-0.7,0.2-0.9,0.4L142.2,78z"/>
	<path class="st1" d="M152.5,78.5h-1.8c0,0.9-0.1,1.8-0.1,2.7c-0.1,0.9-0.1,1.6-0.3,2.3c-0.1,0.7-0.3,1.2-0.6,1.6
		c-0.2,0.4-0.6,0.6-1,0.6c-0.2,0-0.3,0-0.5,0c-0.1,0-0.2-0.1-0.4-0.1l0.2-1c0.2,0.1,0.4,0.1,0.6-0.1c0.2-0.1,0.3-0.4,0.5-0.8
		c0.1-0.5,0.2-1.2,0.3-2.1s0.1-2.3,0.2-4h4v8.1h-1.2L152.5,78.5L152.5,78.5z"/>
	<path class="st1" d="M157.1,84.5c0.3,0.1,0.6,0.1,0.9,0.1c1,0,1.5-0.5,1.5-1.6c0-0.5-0.1-0.9-0.4-1.1c-0.2-0.3-0.6-0.4-1.1-0.4
		c-0.1,0-0.3,0-0.4,0c-0.2,0-0.3,0.1-0.5,0.1V84.5z M157.1,80.5c0.2,0,0.4-0.1,0.6-0.1c0.2,0,0.4,0,0.6,0c0.4,0,0.8,0.1,1.2,0.2
		c0.3,0.1,0.6,0.3,0.8,0.5c0.2,0.2,0.3,0.5,0.4,0.8c0.1,0.3,0.1,0.6,0.1,0.9c0,1-0.2,1.7-0.7,2.1c-0.5,0.4-1.2,0.7-2.2,0.7
		c-0.6,0-1.2,0-1.8-0.1v-8.1h1.2L157.1,80.5L157.1,80.5z"/>
	<polygon class="st1" points="166.3,81.9 163.5,81.9 163.5,85.5 162.3,85.5 162.3,77.5 163.5,77.5 163.5,80.9 166.3,80.9 
		166.3,77.5 167.5,77.5 167.5,85.5 166.3,85.5 	"/>
	<path class="st1" d="M175.3,77.5h1.2v8.1h-1.2V77.5z M170.8,84.5c0.3,0.1,0.6,0.1,0.9,0.1c0.5,0,0.9-0.1,1.1-0.4
		c0.2-0.3,0.3-0.7,0.3-1.2c0-0.5-0.1-0.9-0.3-1.1c-0.2-0.3-0.6-0.4-1-0.4c-0.1,0-0.3,0-0.4,0c-0.2,0-0.3,0.1-0.5,0.1L170.8,84.5
		L170.8,84.5z M170.8,80.5c0.2,0,0.4-0.1,0.6-0.1c0.2,0,0.4,0,0.6,0c0.4,0,0.8,0.1,1.1,0.2c0.3,0.1,0.6,0.3,0.7,0.5
		c0.2,0.2,0.3,0.5,0.4,0.8c0.1,0.3,0.1,0.6,0.1,0.9c0,1-0.2,1.7-0.7,2.1c-0.4,0.4-1.2,0.7-2.2,0.7c-0.6,0-1.2,0-1.8-0.1v-8.1h1.2
		V80.5z"/>
	<path class="st1" d="M182.6,80.7c0-0.8-0.1-1.4-0.3-1.8c-0.2-0.4-0.6-0.6-1-0.6c-0.5,0-0.9,0.2-1.2,0.6c-0.3,0.4-0.5,1-0.5,1.8
		H182.6z M183.5,85c-0.2,0.2-0.6,0.4-1,0.6c-0.4,0.1-0.8,0.2-1.3,0.2c-0.5,0-0.9-0.1-1.3-0.3c-0.4-0.2-0.7-0.5-0.9-0.9
		c-0.2-0.4-0.4-0.8-0.5-1.3c-0.1-0.5-0.2-1.1-0.2-1.7c0-1.4,0.2-2.4,0.8-3.1c0.5-0.7,1.2-1.1,2.1-1.1c0.3,0,0.6,0,0.9,0.1
		c0.3,0.1,0.6,0.2,0.8,0.5c0.2,0.2,0.4,0.6,0.6,1c0.1,0.4,0.2,0.9,0.2,1.6c0,0.2,0,0.4,0,0.6c0,0.2,0,0.4-0.1,0.7h-4.1
		c0,0.5,0,0.9,0.1,1.3c0.1,0.4,0.2,0.7,0.4,1c0.2,0.3,0.4,0.5,0.6,0.6c0.2,0.1,0.6,0.2,0.9,0.2c0.3,0,0.6-0.1,0.9-0.2
		c0.3-0.1,0.5-0.2,0.7-0.4L183.5,85z"/>
	<path class="st1" d="M191.4,82.7l0.3,1.6h0.1l0.2-1.6l1.2-5.2h1.2l-1.9,7.2c-0.2,0.6-0.3,1.1-0.4,1.6c-0.1,0.5-0.3,0.9-0.5,1.3
		c-0.2,0.4-0.4,0.7-0.6,0.9c-0.2,0.2-0.5,0.3-0.8,0.3c-0.3,0-0.6-0.1-0.8-0.1l0.2-1.1c0.1,0.1,0.3,0.1,0.4,0c0.1,0,0.3-0.1,0.4-0.3
		c0.1-0.2,0.2-0.4,0.4-0.7c0.1-0.3,0.2-0.7,0.3-1.2l-2.6-8.1h1.3L191.4,82.7z"/>
	<path class="st1" d="M200.1,85.1c-0.3,0.2-0.6,0.4-0.9,0.4c-0.3,0.1-0.7,0.1-1.1,0.1c-0.5,0-1-0.1-1.3-0.3
		c-0.4-0.2-0.6-0.5-0.9-0.9c-0.2-0.4-0.4-0.8-0.5-1.3c-0.1-0.5-0.2-1.1-0.2-1.7c0-1.4,0.2-2.4,0.7-3.1c0.5-0.7,1.2-1.1,2.1-1.1
		c0.4,0,0.8,0,1.1,0.1c0.3,0.1,0.6,0.2,0.8,0.3l-0.3,1c-0.4-0.2-0.9-0.4-1.4-0.4c-0.6,0-1,0.2-1.3,0.8c-0.3,0.5-0.4,1.3-0.4,2.4
		c0,0.4,0,0.9,0.1,1.2s0.2,0.7,0.3,1c0.1,0.3,0.3,0.5,0.6,0.7c0.2,0.2,0.5,0.2,0.9,0.2c0.3,0,0.6-0.1,0.8-0.1
		c0.2-0.1,0.4-0.2,0.6-0.3L200.1,85.1z"/>
	<path class="st1" d="M204.9,78.5h-1.8c0,0.9-0.1,1.8-0.1,2.7c-0.1,0.9-0.1,1.6-0.3,2.3c-0.1,0.7-0.3,1.2-0.6,1.6
		c-0.2,0.4-0.6,0.6-1,0.6c-0.2,0-0.3,0-0.5,0c-0.1,0-0.2-0.1-0.4-0.1l0.2-1c0.2,0.1,0.4,0.1,0.6-0.1c0.2-0.1,0.3-0.4,0.5-0.8
		s0.2-1.2,0.3-2.1s0.1-2.3,0.2-4h4v8.1h-1.2L204.9,78.5L204.9,78.5z"/>
	<path class="st1" d="M210.3,82.7l0.3,1.6h0.1l0.2-1.6l1.2-5.2h1.2l-1.9,7.2c-0.1,0.6-0.3,1.1-0.4,1.6c-0.1,0.5-0.3,0.9-0.5,1.3
		c-0.2,0.4-0.4,0.7-0.6,0.9c-0.2,0.2-0.5,0.3-0.8,0.3c-0.3,0-0.6-0.1-0.8-0.1l0.2-1.1c0.2,0.1,0.3,0.1,0.4,0c0.1,0,0.3-0.1,0.4-0.3
		c0.1-0.2,0.3-0.4,0.4-0.7c0.1-0.3,0.2-0.7,0.3-1.2l-2.6-8.1h1.3L210.3,82.7z"/>
	<polygon class="st1" points="218.6,78.5 215.9,78.5 215.9,85.5 214.7,85.5 214.7,77.5 218.6,77.5 	"/>
	<polygon class="st1" points="223.8,80.9 224,79.7 223.9,79.7 223.3,81 220.6,85.5 219.8,85.5 219.8,77.5 221,77.5 221,82.3 
		220.9,83.4 220.9,83.4 221.5,82.1 224.3,77.5 225,77.5 225,85.5 223.8,85.5 	"/>
	<polygon class="st1" points="83,63.2 80.3,63.2 80.3,70.3 79.1,70.3 79.1,62.2 83,62.2 	"/>
	<path class="st1" d="M84.9,66.2c0,0.5,0,0.9,0.1,1.3c0.1,0.4,0.2,0.7,0.3,1c0.1,0.3,0.3,0.5,0.5,0.7c0.2,0.2,0.5,0.2,0.8,0.2
		c0.6,0,1-0.2,1.3-0.7c0.3-0.5,0.4-1.3,0.4-2.4c0-0.5,0-0.9-0.1-1.3c-0.1-0.4-0.2-0.7-0.3-1c-0.1-0.3-0.3-0.5-0.5-0.7
		c-0.2-0.2-0.5-0.2-0.8-0.2c-0.6,0-1,0.2-1.2,0.8C85,64.3,84.9,65.1,84.9,66.2 M83.7,66.2c0-1.5,0.2-2.5,0.7-3.2
		c0.5-0.7,1.2-1,2.1-1c1,0,1.7,0.4,2.2,1c0.5,0.7,0.7,1.8,0.7,3.2c0,1.5-0.2,2.5-0.7,3.2c-0.5,0.7-1.2,1-2.1,1c-1,0-1.7-0.4-2.2-1
		C83.9,68.7,83.7,67.6,83.7,66.2"/>
	<path class="st1" d="M95.8,69.9c-0.3,0.2-0.6,0.4-0.9,0.5c-0.3,0.1-0.7,0.1-1.1,0.1c-0.5,0-0.9-0.1-1.3-0.3
		c-0.4-0.2-0.6-0.5-0.9-0.9c-0.2-0.4-0.4-0.8-0.5-1.4c-0.1-0.5-0.1-1.1-0.1-1.7c0-1.4,0.2-2.4,0.7-3.1c0.5-0.7,1.2-1.1,2.1-1.1
		c0.4,0,0.8,0,1.1,0.1c0.3,0.1,0.6,0.2,0.8,0.3l-0.3,1c-0.4-0.2-0.9-0.4-1.4-0.4c-0.6,0-1,0.2-1.3,0.8c-0.3,0.5-0.4,1.3-0.4,2.4
		c0,0.4,0,0.9,0.1,1.2c0.1,0.4,0.2,0.7,0.3,1c0.2,0.3,0.4,0.5,0.6,0.7c0.2,0.2,0.5,0.2,0.9,0.2c0.3,0,0.6-0.1,0.8-0.1
		c0.2-0.1,0.4-0.2,0.6-0.3L95.8,69.9z"/>
	<path class="st1" d="M99.3,67.4l0.3,1.6h0.1l0.2-1.6l1.2-5.2h1.2l-1.9,7.2c-0.1,0.6-0.3,1.1-0.4,1.6c-0.2,0.5-0.3,0.9-0.5,1.3
		c-0.2,0.4-0.4,0.7-0.6,0.9s-0.5,0.3-0.8,0.3c-0.3,0-0.6-0.1-0.8-0.1l0.2-1.1c0.1,0.1,0.3,0.1,0.4,0c0.2,0,0.3-0.1,0.4-0.3
		c0.1-0.2,0.2-0.4,0.4-0.7c0.1-0.3,0.2-0.7,0.3-1.2l-2.6-8.1h1.3L99.3,67.4z"/>
	<path class="st1" d="M107.2,69.2v-6h-1.8c0,0.5-0.1,1-0.1,1.5c0,0.6-0.1,1.1-0.2,1.7c-0.1,0.6-0.2,1.1-0.3,1.6
		c-0.1,0.5-0.2,0.9-0.4,1.3L107.2,69.2L107.2,69.2z M109.3,72.3h-0.8l-0.2-2.1h-4.8l-0.2,2.1h-0.8v-3.1h0.8c0.1-0.1,0.2-0.3,0.3-0.7
		c0.1-0.3,0.2-0.8,0.3-1.3c0.1-0.6,0.2-1.3,0.3-2.1c0.1-0.8,0.1-1.8,0.1-3h4.1v7h1L109.3,72.3L109.3,72.3z"/>
	<path class="st1" d="M114.2,66.6c-0.1,0-0.2,0-0.3,0s-0.2,0-0.3,0c-0.2,0-0.5,0-0.7,0.1c-0.2,0.1-0.5,0.1-0.7,0.2
		c-0.2,0.1-0.3,0.2-0.4,0.4c-0.1,0.2-0.2,0.4-0.2,0.7c0,0.4,0.1,0.8,0.3,1c0.2,0.2,0.5,0.4,0.8,0.4c0.4,0,0.8-0.1,1-0.3
		s0.4-0.4,0.5-0.7L114.2,66.6L114.2,66.6z M110.8,62.7c0.3-0.2,0.7-0.3,1.1-0.4c0.4-0.1,0.9-0.2,1.4-0.2c0.4,0,0.8,0.1,1.1,0.2
		c0.3,0.1,0.5,0.3,0.6,0.6c0.2,0.2,0.2,0.5,0.3,0.8c0.1,0.3,0.1,0.6,0.1,0.9c0,0.6,0,1.3-0.1,1.9c0,0.6-0.1,1.2-0.1,1.7
		c0,0.4,0,0.8,0.1,1.1c0,0.4,0.1,0.7,0.2,1h-0.9l-0.3-1h-0.1c-0.2,0.3-0.4,0.5-0.7,0.7c-0.3,0.2-0.7,0.3-1.2,0.3
		c-0.6,0-1-0.2-1.4-0.6c-0.4-0.4-0.6-1-0.6-1.7c0-0.5,0.1-0.9,0.2-1.2c0.2-0.3,0.4-0.6,0.7-0.8c0.3-0.2,0.6-0.3,1-0.4
		c0.4-0.1,0.8-0.1,1.3-0.1h0.3c0.1,0,0.2,0,0.3,0c0-0.3,0.1-0.6,0.1-0.9c0-0.6-0.1-1-0.3-1.3c-0.2-0.2-0.5-0.4-1-0.4
		c-0.3,0-0.6,0.1-1,0.1c-0.4,0.1-0.7,0.2-0.9,0.3L110.8,62.7z"/>
	<path class="st1" d="M118.8,69c0.1,0.1,0.3,0.2,0.5,0.3c0.2,0.1,0.4,0.1,0.7,0.1c0.6,0,1-0.3,1.4-0.9c0.3-0.6,0.5-1.4,0.5-2.5
		c0-0.4,0-0.9-0.1-1.2c-0.1-0.4-0.2-0.7-0.3-0.9c-0.1-0.3-0.3-0.5-0.5-0.6c-0.2-0.1-0.4-0.2-0.7-0.2c-0.8,0-1.3,0.5-1.5,1.4
		L118.8,69L118.8,69z M117.6,62.2h0.8l0.2,0.9h0.1c0.4-0.7,1-1.1,1.9-1.1c0.9,0,1.5,0.3,1.9,1c0.4,0.6,0.6,1.7,0.6,3.1
		c0,0.7-0.1,1.3-0.2,1.8c-0.1,0.6-0.3,1-0.6,1.4c-0.2,0.4-0.6,0.7-0.9,0.9c-0.4,0.2-0.8,0.3-1.2,0.3c-0.3,0-0.6,0-0.7-0.1
		c-0.2,0-0.4-0.1-0.6-0.2v3.3h-1.2L117.6,62.2L117.6,62.2z"/>
	<path class="st1" d="M129.5,69.9c-0.3,0.2-0.6,0.4-0.9,0.5c-0.4,0.1-0.7,0.1-1.1,0.1c-0.5,0-1-0.1-1.3-0.3
		c-0.4-0.2-0.6-0.5-0.9-0.9c-0.2-0.4-0.4-0.8-0.5-1.4c-0.1-0.5-0.2-1.1-0.2-1.7c0-1.4,0.2-2.4,0.7-3.1c0.5-0.7,1.2-1.1,2.1-1.1
		c0.4,0,0.8,0,1.1,0.1c0.3,0.1,0.6,0.2,0.8,0.3l-0.3,1c-0.4-0.2-0.9-0.4-1.4-0.4c-0.6,0-1,0.2-1.3,0.8c-0.3,0.5-0.4,1.3-0.4,2.4
		c0,0.4,0,0.9,0.1,1.2c0.1,0.4,0.2,0.7,0.3,1c0.1,0.3,0.4,0.5,0.6,0.7c0.2,0.2,0.5,0.2,0.9,0.2c0.3,0,0.6-0.1,0.8-0.1
		c0.2-0.1,0.4-0.2,0.6-0.3L129.5,69.9z"/>
	<polygon class="st1" points="135.1,63.2 133.1,63.2 133.1,70.3 131.9,70.3 131.9,63.2 130,63.2 130,62.2 135.1,62.2 	"/>
	<path class="st1" d="M137.6,69.3c0.2,0,0.3,0,0.5,0.1c0.1,0,0.3,0,0.6,0c0.6,0,0.9-0.1,1.2-0.3c0.2-0.2,0.4-0.6,0.4-1.1
		c0-0.4-0.1-0.7-0.3-1s-0.6-0.4-1.2-0.4h-1.1L137.6,69.3L137.6,69.3z M138.7,65.6c0.1,0,0.3,0,0.4-0.1c0.1-0.1,0.3-0.2,0.4-0.3
		c0.1-0.1,0.2-0.2,0.3-0.4c0.1-0.2,0.1-0.3,0.1-0.5c0-0.4-0.1-0.7-0.3-0.9c-0.2-0.2-0.6-0.3-1-0.3c-0.2,0-0.5,0-0.6,0
		c-0.2,0-0.3,0-0.4,0v2.5L138.7,65.6L138.7,65.6z M136.4,62.2c0.3,0,0.6-0.1,1-0.1c0.4,0,0.8-0.1,1.3-0.1c0.9,0,1.5,0.2,1.9,0.5
		c0.4,0.3,0.6,0.8,0.6,1.5c0,0.4-0.1,0.7-0.3,1.1c-0.2,0.4-0.5,0.6-0.9,0.8V66c0.5,0.1,0.9,0.3,1.1,0.7c0.2,0.3,0.3,0.7,0.3,1.3
		c0,0.8-0.2,1.4-0.7,1.8c-0.5,0.4-1.2,0.6-2.2,0.6c-0.4,0-0.7,0-1,0c-0.3,0-0.7-0.1-1-0.1L136.4,62.2L136.4,62.2z"/>
	<path class="st1" d="M147.2,65.4c0-0.8-0.1-1.4-0.3-1.8c-0.2-0.4-0.6-0.6-1-0.6c-0.5,0-0.9,0.2-1.2,0.6c-0.3,0.4-0.5,1-0.5,1.8
		H147.2z M148.1,69.7c-0.2,0.2-0.6,0.4-1,0.6s-0.8,0.2-1.3,0.2c-0.5,0-0.9-0.1-1.3-0.3c-0.4-0.2-0.7-0.5-0.9-0.9
		c-0.2-0.4-0.4-0.8-0.5-1.3c-0.1-0.5-0.2-1.1-0.2-1.7c0-1.4,0.2-2.4,0.8-3.1c0.5-0.7,1.2-1.1,2.1-1.1c0.3,0,0.6,0,0.9,0.1
		c0.3,0.1,0.6,0.2,0.8,0.4c0.2,0.2,0.4,0.6,0.6,1s0.2,0.9,0.2,1.6c0,0.2,0,0.4,0,0.6c0,0.2,0,0.4-0.1,0.7h-4.1c0,0.5,0,0.9,0.1,1.3
		c0.1,0.4,0.2,0.7,0.4,1c0.2,0.3,0.4,0.5,0.6,0.6c0.2,0.1,0.6,0.2,0.9,0.2c0.3,0,0.6-0.1,0.9-0.2c0.3-0.1,0.5-0.2,0.7-0.4
		L148.1,69.7z"/>
	<polygon class="st1" points="154.2,66.7 151.4,66.7 151.4,70.3 150.2,70.3 150.2,62.2 151.4,62.2 151.4,65.6 154.2,65.6 
		154.2,62.2 155.4,62.2 155.4,70.3 154.2,70.3 	"/>
	<polygon class="st1" points="161.5,66.7 158.7,66.7 158.7,70.3 157.6,70.3 157.6,62.2 158.7,62.2 158.7,65.6 161.5,65.6 
		161.5,62.2 162.7,62.2 162.7,70.3 161.5,70.3 	"/>
	<path class="st1" d="M170.5,62.2h1.2v8.1h-1.2V62.2z M166.1,69.2c0.3,0.1,0.6,0.1,0.9,0.1c0.5,0,0.9-0.1,1.1-0.4
		c0.2-0.3,0.3-0.7,0.3-1.2c0-0.5-0.1-0.9-0.3-1.1c-0.2-0.3-0.6-0.4-1-0.4c-0.1,0-0.3,0-0.4,0c-0.2,0-0.3,0.1-0.5,0.1L166.1,69.2
		L166.1,69.2z M166.1,65.3c0.2-0.1,0.4-0.1,0.6-0.1c0.2,0,0.4,0,0.6,0c0.4,0,0.8,0.1,1.1,0.2c0.3,0.1,0.6,0.3,0.7,0.5
		c0.2,0.2,0.3,0.5,0.4,0.8c0.1,0.3,0.1,0.6,0.1,0.9c0,1-0.2,1.7-0.7,2.1c-0.4,0.4-1.2,0.7-2.2,0.7c-0.6,0-1.2,0-1.8-0.1v-8.1h1.2
		V65.3L166.1,65.3z"/>
	<path class="st1" d="M177.9,65.4c0-0.8-0.1-1.4-0.3-1.8c-0.2-0.4-0.6-0.6-1-0.6c-0.5,0-0.9,0.2-1.2,0.6c-0.3,0.4-0.5,1-0.5,1.8
		H177.9z M178.8,69.7c-0.2,0.2-0.6,0.4-1,0.6s-0.8,0.2-1.3,0.2c-0.5,0-0.9-0.1-1.3-0.3c-0.4-0.2-0.7-0.5-0.9-0.9
		c-0.2-0.4-0.4-0.8-0.5-1.3c-0.1-0.5-0.2-1.1-0.2-1.7c0-1.4,0.2-2.4,0.8-3.1c0.5-0.7,1.2-1.1,2.1-1.1c0.3,0,0.6,0,0.9,0.1
		c0.3,0.1,0.6,0.2,0.8,0.4c0.2,0.2,0.4,0.6,0.6,1c0.1,0.4,0.2,0.9,0.2,1.6c0,0.2,0,0.4,0,0.6c0,0.2,0,0.4-0.1,0.7h-4.1
		c0,0.5,0.1,0.9,0.1,1.3c0.1,0.4,0.2,0.7,0.4,1c0.2,0.3,0.4,0.5,0.6,0.6c0.2,0.1,0.6,0.2,0.9,0.2c0.3,0,0.6-0.1,0.9-0.2
		c0.3-0.1,0.5-0.2,0.7-0.4L178.8,69.7z"/>
</g>
</svg>
