<svg width="11" height="18" viewBox="0 0 11 18" fill="none" xmlns="http://www.w3.org/2000/svg">
<path d="M5.73727 9.29881L1.68789 13.3769C1.52633 13.5422 1.26508 13.5422 1.10352 13.3769L0.859453 13.1273C0.697891 12.9621 0.697891 12.6949 0.859453 12.5297L4.37602 8.99998L0.862891 5.47029C0.701328 5.30506 0.701328 5.03787 0.862891 4.87264L1.10695 4.62303C1.26852 4.45779 1.52977 4.45779 1.69133 4.62303L5.7407 8.70115C5.89883 8.86638 5.89883 9.13357 5.73727 9.29881ZM10.1373 8.70115L6.08789 4.62303C5.92633 4.45779 5.66508 4.45779 5.50352 4.62303L5.25945 4.87264C5.09789 5.03787 5.09789 5.30506 5.25945 5.47029L8.77602 8.99998L5.26289 12.5297C5.10133 12.6949 5.10133 12.9621 5.26289 13.1273L5.50695 13.3769C5.66852 13.5422 5.92977 13.5422 6.09133 13.3769L10.1407 9.29881C10.2988 9.13357 10.2988 8.86638 10.1373 8.70115Z" fill="black"/>
</svg>
