<?xml version="1.0" encoding="utf-8"?>
<!-- Generator: Adobe Illustrator 21.0.0, SVG Export Plug-In . SVG Version: 6.00 Build 0)  -->
<svg version="1.1" id="Layer_1" xmlns="http://www.w3.org/2000/svg" xmlns:xlink="http://www.w3.org/1999/xlink" x="0px" y="0px"
	 viewBox="0 0 512 512" style="enable-background:new 0 0 512 512;" xml:space="preserve">
<style type="text/css">
	.st0{fill:#01913E;}
</style>
<g>
	<g>
		<path class="st0" d="M494.5,138.6L364,3c-1.9-1.9-4.4-3-7.1-3H162.5c-21.8,0-39.5,17.7-39.5,39.4v137.8H44.3
			c-16.3,0-29.5,13.2-29.5,29.5v147.7c0,16.3,13.2,29.5,29.5,29.5h78.8v88.6c0,21.7,17.7,39.4,39.5,39.4h295.2
			c21.8,0,39.5-17.7,39.5-39.4V145.4C497.2,142.8,496.2,140.4,494.5,138.6z M359.4,26.6l107.1,111.3H359.4V26.6z M44.3,364.3
			c-5.4,0-9.8-4.4-9.8-9.8V206.7c0-5.4,4.4-9.8,9.8-9.8h265.9c5.4,0,9.8,4.4,9.8,9.8v147.7c0,5.4-4.4,9.8-9.8,9.8H44.3z
			 M477.5,472.6c0,10.8-8.9,19.7-19.8,19.7H162.5c-10.9,0-19.8-8.8-19.8-19.7V384h167.4c16.3,0,29.5-13.2,29.5-29.5V206.7
			c0-16.3-13.2-29.5-29.5-29.5H142.8V39.4c0-10.9,8.9-19.8,19.8-19.8h177.2v128c0,5.4,4.4,9.8,9.8,9.8h128L477.5,472.6L477.5,472.6z
			"/>
	</g>
</g>
<g>
	<path class="st0" d="M100.3,310.2h38.5v15.1H76.1v-8.8l37.8-60.7H76v-15.1h62.3v8.5L100.3,310.2z"/>
	<path class="st0" d="M183,325.3h-19.6v-84.6H183V325.3z"/>
	<path class="st0" d="M230.9,296.3v29h-19.7v-84.6h34.3c10,0,18,2.6,23.9,7.7c5.9,5.1,8.8,11.8,8.8,20.1c0,8.3-2.9,15-8.8,20.1
		c-5.9,5.1-13.8,7.6-23.9,7.6H230.9z M230.9,281.2h14.6c4.3,0,7.5-1.2,9.7-3.5c2.2-2.3,3.3-5.4,3.3-9c0-3.8-1.1-6.8-3.3-9.2
		c-2.2-2.4-5.5-3.6-9.7-3.6h-14.6V281.2z"/>
</g>
</svg>
